<svg xmlns="http://www.w3.org/2000/svg" viewBox="0 0 490 300" width="490" height="300" role="img" aria-label="RagForge">
<defs><clipPath id="c"><rect width="490" height="300" rx="12"/></clipPath></defs>
<g clip-path="url(#c)">
<rect width="490" height="300" fill="#f6f8fa"/>
  <rect x="34" y="38" width="70" height="66" rx="8" stroke="#afb8c1" stroke-width="1.4" stroke-opacity="1" fill="none"/>
    <rect x="34" y="38" width="70" height="66" rx="8" stroke="#0969da" stroke-width="1.6" fill="none" opacity="0"><animate attributeName="opacity" values="0;0.9;0;0" keyTimes="0;0.12;0.3;1" dur="4s" begin="0s" repeatCount="indefinite"/></rect>
    <text x="69.0" y="124" text-anchor="middle" font-family="ui-monospace, SFMono-Regular, 'SF Mono', Menlo, Consolas, 'Liberation Mono', monospace" font-size="10.5" fill="#818b98">QUERY</text><text x="69" y="76" text-anchor="middle" font-family="ui-monospace, SFMono-Regular, 'SF Mono', Menlo, Consolas, 'Liberation Mono', monospace" font-size="13" fill="#0969da">query</text><rect x="128" y="38" width="110" height="66" rx="8" stroke="#afb8c1" stroke-width="1.4" stroke-opacity="1" fill="none"/>
    <rect x="128" y="38" width="110" height="66" rx="8" stroke="#0969da" stroke-width="1.6" fill="none" opacity="0"><animate attributeName="opacity" values="0;0.9;0;0" keyTimes="0;0.12;0.3;1" dur="4s" begin="0.7s" repeatCount="indefinite"/></rect>
    <rect x="142" y="47.0" width="64" height="4" rx="2" fill="#afb8c1" fill-opacity="0.8"/><rect x="142" y="56.5" width="50" height="4" rx="2" fill="#afb8c1" fill-opacity="0.8"/><rect x="142" y="66.0" width="58" height="4" rx="2" fill="#afb8c1" fill-opacity="0.8"/><rect x="142" y="75.5" width="38" height="4" rx="2" fill="#afb8c1" fill-opacity="0.8"/><rect x="142" y="85.0" width="54" height="4" rx="2" fill="#afb8c1" fill-opacity="0.8"/><rect x="142" y="94.5" width="44" height="4" rx="2" fill="#afb8c1" fill-opacity="0.8"/><text x="183.0" y="124" text-anchor="middle" font-family="ui-monospace, SFMono-Regular, 'SF Mono', Menlo, Consolas, 'Liberation Mono', monospace" font-size="10.5" fill="#818b98">RETRIEVE</text><rect x="262" y="38" width="90" height="66" rx="8" stroke="#afb8c1" stroke-width="1.4" stroke-opacity="1" fill="none"/>
    <rect x="262" y="38" width="90" height="66" rx="8" stroke="#0969da" stroke-width="1.6" fill="none" opacity="0"><animate attributeName="opacity" values="0;0.9;0;0" keyTimes="0;0.12;0.3;1" dur="4s" begin="1.4s" repeatCount="indefinite"/></rect>
    <rect x="276" y="47.0" width="52" height="4" rx="2" fill="#0969da" fill-opacity="1"/><rect x="276" y="56.5" width="42" height="4" rx="2" fill="#afb8c1" fill-opacity="0.8"/><rect x="276" y="66.0" width="30" height="4" rx="2" fill="#afb8c1" fill-opacity="0.8"/><text x="307.0" y="124" text-anchor="middle" font-family="ui-monospace, SFMono-Regular, 'SF Mono', Menlo, Consolas, 'Liberation Mono', monospace" font-size="10.5" fill="#818b98">RERANK</text><rect x="376" y="38" width="80" height="66" rx="8" stroke="#afb8c1" stroke-width="1.4" stroke-opacity="1" fill="none"/>
    <rect x="376" y="38" width="80" height="66" rx="8" stroke="#0969da" stroke-width="1.6" fill="none" opacity="0"><animate attributeName="opacity" values="0;0.9;0;0" keyTimes="0;0.12;0.3;1" dur="4s" begin="2.1s" repeatCount="indefinite"/></rect>
    <rect x="390" y="47.0" width="50" height="4" rx="2" fill="#afb8c1" fill-opacity="0.8"/><rect x="390" y="56.5" width="42" height="4" rx="2" fill="#afb8c1" fill-opacity="0.8"/><rect x="390" y="66.0" width="48" height="4" rx="2" fill="#afb8c1" fill-opacity="0.8"/><rect x="390" y="75.5" width="30" height="4" rx="2" fill="#afb8c1" fill-opacity="0.8"/><text x="416.0" y="124" text-anchor="middle" font-family="ui-monospace, SFMono-Regular, 'SF Mono', Menlo, Consolas, 'Liberation Mono', monospace" font-size="10.5" fill="#818b98">ANSWER</text><path d="M106 71 H126" stroke="#afb8c1" stroke-width="1.2" stroke-opacity="0.9" fill="none" stroke-dasharray="3 4"/><path d="M240 71 H260" stroke="#afb8c1" stroke-width="1.2" stroke-opacity="0.9" fill="none" stroke-dasharray="3 4"/><path d="M354 71 H374" stroke="#afb8c1" stroke-width="1.2" stroke-opacity="0.9" fill="none" stroke-dasharray="3 4"/><circle r="3.5" fill="#0969da"><animateMotion path="M106 71 H456" dur="4s" begin="0s" repeatCount="indefinite"/><animate attributeName="opacity" values="0;1;1;0" keyTimes="0;0.06;0.9;1" dur="4s" begin="0s" repeatCount="indefinite"/></circle><circle r="3.5" fill="#0969da"><animateMotion path="M106 71 H456" dur="4s" begin="2s" repeatCount="indefinite"/><animate attributeName="opacity" values="0;1;1;0" keyTimes="0;0.06;0.9;1" dur="4s" begin="2s" repeatCount="indefinite"/></circle>
  <path d="M448 40 L464 24 M450 24 H464 V38" fill="none" stroke="#818b98" stroke-width="1.6" stroke-linecap="round" stroke-linejoin="round"/>
  <line x1="24" y1="154" x2="466" y2="154" stroke="#d0d7de"/>
  <text x="26" y="188" font-family="-apple-system, BlinkMacSystemFont, 'Segoe UI', 'Noto Sans', Helvetica, Arial, sans-serif" font-size="19" font-weight="600" fill="#1f2328">RagForge</text>
  <text x="26" y="213" font-family="-apple-system, BlinkMacSystemFont, 'Segoe UI', 'Noto Sans', Helvetica, Arial, sans-serif" font-size="13.5" fill="#59636e">Production-grade RAG: hybrid retrieval, cross-encoder</text>
  <text x="26" y="233" font-family="-apple-system, BlinkMacSystemFont, 'Segoe UI', 'Noto Sans', Helvetica, Arial, sans-serif" font-size="13.5" fill="#59636e">reranking, adaptive routing and statistical evaluation.</text>
  <text x="26" y="269" font-family="ui-monospace, SFMono-Regular, 'SF Mono', Menlo, Consolas, 'Liberation Mono', monospace" font-size="12" fill="#818b98">Python  ·  RAG  ·  Reranking</text>
</g>
<rect x="0.5" y="0.5" width="489" height="299" rx="12" fill="none" stroke="#d0d7de"/>
</svg>