<svg xmlns="http://www.w3.org/2000/svg" viewBox="0 0 1000 170" width="1000" height="170" role="img">
<defs>
  <linearGradient id="tbg" x1="0" y1="0" x2="1" y2="1"><stop offset="0" stop-color="#121b2e"/><stop offset="1" stop-color="#090e18"/></linearGradient>
  <radialGradient id="b1" cx="50%" cy="50%" r="50%"><stop offset="0" stop-color="#60a5fa" stop-opacity="0.34"/><stop offset="1" stop-color="#60a5fa" stop-opacity="0"/></radialGradient>
  <radialGradient id="b2" cx="50%" cy="50%" r="50%"><stop offset="0" stop-color="#a78bfa" stop-opacity="0.26"/><stop offset="1" stop-color="#a78bfa" stop-opacity="0"/></radialGradient>
  <pattern id="dots" width="22" height="22" patternUnits="userSpaceOnUse"><circle cx="2" cy="2" r="1" fill="#fff" fill-opacity="0.07"/></pattern>
  <filter id="glow" x="-40%" y="-40%" width="180%" height="180%"><feGaussianBlur stdDeviation="3" result="b"/><feMerge><feMergeNode in="b"/><feMergeNode in="SourceGraphic"/></feMerge></filter>
  <clipPath id="clipT"><rect width="1000" height="170" rx="22"/></clipPath>
  
</defs>
<g clip-path="url(#clipT)">
  <rect width="1000" height="170" fill="url(#tbg)"/>
  <rect width="1000" height="170" fill="url(#dots)"/>
  <circle cx="920" cy="-10" r="420" fill="url(#b1)"><animateTransform attributeName="transform" type="translate" values="0 0;-26 18;0 0" dur="9s" repeatCount="indefinite"/></circle>
  <circle cx="-10" cy="178" r="360" fill="url(#b2)"><animateTransform attributeName="transform" type="translate" values="0 0;22 -16;0 0" dur="11s" repeatCount="indefinite"/></circle>

  <defs><linearGradient id="mk" x1="0" x2="1"><stop offset="0" stop-color="#000"/><stop offset="0.08" stop-color="#fff"/><stop offset="0.92" stop-color="#fff"/><stop offset="1" stop-color="#000"/></linearGradient>
  <mask id="fadeE"><rect width="1000" height="170" fill="url(#mk)"/></mask></defs>
  <g mask="url(#fadeE)"><g transform="translate(0,30)"><g><animateTransform attributeName="transform" type="translate" from="0 0" to="-913.9999999999999 0" dur="38s" repeatCount="indefinite"/><g transform="translate(0,0)"><rect width="91" height="38" rx="19" fill="#60a5fa" fill-opacity="0.1" stroke="#60a5fa" stroke-opacity="0.5"/><circle cx="19" cy="19" r="4.5" fill="#60a5fa"/><text x="32" y="24.5" font-family="ui-monospace, SFMono-Regular, Menlo, Consolas, 'Liberation Mono', monospace" font-size="14" font-weight="600" fill="#e6edf3">Python</text></g><g transform="translate(105,0)"><rect width="45" height="38" rx="19" fill="#60a5fa" fill-opacity="0.1" stroke="#60a5fa" stroke-opacity="0.5"/><circle cx="19" cy="19" r="4.5" fill="#60a5fa"/><text x="32" y="24.5" font-family="ui-monospace, SFMono-Regular, Menlo, Consolas, 'Liberation Mono', monospace" font-size="14" font-weight="600" fill="#e6edf3">C</text></g><g transform="translate(164,0)"><rect width="64" height="38" rx="19" fill="#60a5fa" fill-opacity="0.1" stroke="#60a5fa" stroke-opacity="0.5"/><circle cx="19" cy="19" r="4.5" fill="#60a5fa"/><text x="32" y="24.5" font-family="ui-monospace, SFMono-Regular, Menlo, Consolas, 'Liberation Mono', monospace" font-size="14" font-weight="600" fill="#e6edf3">C++</text></g><g transform="translate(242,0)"><rect width="73" height="38" rx="19" fill="#60a5fa" fill-opacity="0.1" stroke="#60a5fa" stroke-opacity="0.5"/><circle cx="19" cy="19" r="4.5" fill="#60a5fa"/><text x="32" y="24.5" font-family="ui-monospace, SFMono-Regular, Menlo, Consolas, 'Liberation Mono', monospace" font-size="14" font-weight="600" fill="#e6edf3">Java</text></g><g transform="translate(329,0)"><rect width="100" height="38" rx="19" fill="#60a5fa" fill-opacity="0.1" stroke="#60a5fa" stroke-opacity="0.5"/><circle cx="19" cy="19" r="4.5" fill="#60a5fa"/><text x="32" y="24.5" font-family="ui-monospace, SFMono-Regular, Menlo, Consolas, 'Liberation Mono', monospace" font-size="14" font-weight="600" fill="#e6edf3">Haskell</text></g><g transform="translate(443,0)"><rect width="128" height="38" rx="19" fill="#60a5fa" fill-opacity="0.1" stroke="#60a5fa" stroke-opacity="0.5"/><circle cx="19" cy="19" r="4.5" fill="#60a5fa"/><text x="32" y="24.5" font-family="ui-monospace, SFMono-Regular, Menlo, Consolas, 'Liberation Mono', monospace" font-size="14" font-weight="600" fill="#e6edf3">JavaScript</text></g><g transform="translate(585,0)"><rect width="73" height="38" rx="19" fill="#60a5fa" fill-opacity="0.1" stroke="#60a5fa" stroke-opacity="0.5"/><circle cx="19" cy="19" r="4.5" fill="#60a5fa"/><text x="32" y="24.5" font-family="ui-monospace, SFMono-Regular, Menlo, Consolas, 'Liberation Mono', monospace" font-size="14" font-weight="600" fill="#e6edf3">HTML</text></g><g transform="translate(672,0)"><rect width="64" height="38" rx="19" fill="#60a5fa" fill-opacity="0.1" stroke="#60a5fa" stroke-opacity="0.5"/><circle cx="19" cy="19" r="4.5" fill="#60a5fa"/><text x="32" y="24.5" font-family="ui-monospace, SFMono-Regular, Menlo, Consolas, 'Liberation Mono', monospace" font-size="14" font-weight="600" fill="#e6edf3">CSS</text></g><g transform="translate(750,0)"><rect width="64" height="38" rx="19" fill="#60a5fa" fill-opacity="0.1" stroke="#60a5fa" stroke-opacity="0.5"/><circle cx="19" cy="19" r="4.5" fill="#60a5fa"/><text x="32" y="24.5" font-family="ui-monospace, SFMono-Regular, Menlo, Consolas, 'Liberation Mono', monospace" font-size="14" font-weight="600" fill="#e6edf3">SQL</text></g><g transform="translate(827,0)"><rect width="73" height="38" rx="19" fill="#34d399" fill-opacity="0.1" stroke="#34d399" stroke-opacity="0.5"/><circle cx="19" cy="19" r="4.5" fill="#34d399"/><text x="32" y="24.5" font-family="ui-monospace, SFMono-Regular, Menlo, Consolas, 'Liberation Mono', monospace" font-size="14" font-weight="600" fill="#e6edf3">Bash</text></g><g transform="translate(914,0)"><g transform="translate(0,0)"><rect width="91" height="38" rx="19" fill="#60a5fa" fill-opacity="0.1" stroke="#60a5fa" stroke-opacity="0.5"/><circle cx="19" cy="19" r="4.5" fill="#60a5fa"/><text x="32" y="24.5" font-family="ui-monospace, SFMono-Regular, Menlo, Consolas, 'Liberation Mono', monospace" font-size="14" font-weight="600" fill="#e6edf3">Python</text></g><g transform="translate(105,0)"><rect width="45" height="38" rx="19" fill="#60a5fa" fill-opacity="0.1" stroke="#60a5fa" stroke-opacity="0.5"/><circle cx="19" cy="19" r="4.5" fill="#60a5fa"/><text x="32" y="24.5" font-family="ui-monospace, SFMono-Regular, Menlo, Consolas, 'Liberation Mono', monospace" font-size="14" font-weight="600" fill="#e6edf3">C</text></g><g transform="translate(164,0)"><rect width="64" height="38" rx="19" fill="#60a5fa" fill-opacity="0.1" stroke="#60a5fa" stroke-opacity="0.5"/><circle cx="19" cy="19" r="4.5" fill="#60a5fa"/><text x="32" y="24.5" font-family="ui-monospace, SFMono-Regular, Menlo, Consolas, 'Liberation Mono', monospace" font-size="14" font-weight="600" fill="#e6edf3">C++</text></g><g transform="translate(242,0)"><rect width="73" height="38" rx="19" fill="#60a5fa" fill-opacity="0.1" stroke="#60a5fa" stroke-opacity="0.5"/><circle cx="19" cy="19" r="4.5" fill="#60a5fa"/><text x="32" y="24.5" font-family="ui-monospace, SFMono-Regular, Menlo, Consolas, 'Liberation Mono', monospace" font-size="14" font-weight="600" fill="#e6edf3">Java</text></g><g transform="translate(329,0)"><rect width="100" height="38" rx="19" fill="#60a5fa" fill-opacity="0.1" stroke="#60a5fa" stroke-opacity="0.5"/><circle cx="19" cy="19" r="4.5" fill="#60a5fa"/><text x="32" y="24.5" font-family="ui-monospace, SFMono-Regular, Menlo, Consolas, 'Liberation Mono', monospace" font-size="14" font-weight="600" fill="#e6edf3">Haskell</text></g><g transform="translate(443,0)"><rect width="128" height="38" rx="19" fill="#60a5fa" fill-opacity="0.1" stroke="#60a5fa" stroke-opacity="0.5"/><circle cx="19" cy="19" r="4.5" fill="#60a5fa"/><text x="32" y="24.5" font-family="ui-monospace, SFMono-Regular, Menlo, Consolas, 'Liberation Mono', monospace" font-size="14" font-weight="600" fill="#e6edf3">JavaScript</text></g><g transform="translate(585,0)"><rect width="73" height="38" rx="19" fill="#60a5fa" fill-opacity="0.1" stroke="#60a5fa" stroke-opacity="0.5"/><circle cx="19" cy="19" r="4.5" fill="#60a5fa"/><text x="32" y="24.5" font-family="ui-monospace, SFMono-Regular, Menlo, Consolas, 'Liberation Mono', monospace" font-size="14" font-weight="600" fill="#e6edf3">HTML</text></g><g transform="translate(672,0)"><rect width="64" height="38" rx="19" fill="#60a5fa" fill-opacity="0.1" stroke="#60a5fa" stroke-opacity="0.5"/><circle cx="19" cy="19" r="4.5" fill="#60a5fa"/><text x="32" y="24.5" font-family="ui-monospace, SFMono-Regular, Menlo, Consolas, 'Liberation Mono', monospace" font-size="14" font-weight="600" fill="#e6edf3">CSS</text></g><g transform="translate(750,0)"><rect width="64" height="38" rx="19" fill="#60a5fa" fill-opacity="0.1" stroke="#60a5fa" stroke-opacity="0.5"/><circle cx="19" cy="19" r="4.5" fill="#60a5fa"/><text x="32" y="24.5" font-family="ui-monospace, SFMono-Regular, Menlo, Consolas, 'Liberation Mono', monospace" font-size="14" font-weight="600" fill="#e6edf3">SQL</text></g><g transform="translate(827,0)"><rect width="73" height="38" rx="19" fill="#34d399" fill-opacity="0.1" stroke="#34d399" stroke-opacity="0.5"/><circle cx="19" cy="19" r="4.5" fill="#34d399"/><text x="32" y="24.5" font-family="ui-monospace, SFMono-Regular, Menlo, Consolas, 'Liberation Mono', monospace" font-size="14" font-weight="600" fill="#e6edf3">Bash</text></g></g><g transform="translate(1828,0)"><g transform="translate(0,0)"><rect width="91" height="38" rx="19" fill="#60a5fa" fill-opacity="0.1" stroke="#60a5fa" stroke-opacity="0.5"/><circle cx="19" cy="19" r="4.5" fill="#60a5fa"/><text x="32" y="24.5" font-family="ui-monospace, SFMono-Regular, Menlo, Consolas, 'Liberation Mono', monospace" font-size="14" font-weight="600" fill="#e6edf3">Python</text></g><g transform="translate(105,0)"><rect width="45" height="38" rx="19" fill="#60a5fa" fill-opacity="0.1" stroke="#60a5fa" stroke-opacity="0.5"/><circle cx="19" cy="19" r="4.5" fill="#60a5fa"/><text x="32" y="24.5" font-family="ui-monospace, SFMono-Regular, Menlo, Consolas, 'Liberation Mono', monospace" font-size="14" font-weight="600" fill="#e6edf3">C</text></g><g transform="translate(164,0)"><rect width="64" height="38" rx="19" fill="#60a5fa" fill-opacity="0.1" stroke="#60a5fa" stroke-opacity="0.5"/><circle cx="19" cy="19" r="4.5" fill="#60a5fa"/><text x="32" y="24.5" font-family="ui-monospace, SFMono-Regular, Menlo, Consolas, 'Liberation Mono', monospace" font-size="14" font-weight="600" fill="#e6edf3">C++</text></g><g transform="translate(242,0)"><rect width="73" height="38" rx="19" fill="#60a5fa" fill-opacity="0.1" stroke="#60a5fa" stroke-opacity="0.5"/><circle cx="19" cy="19" r="4.5" fill="#60a5fa"/><text x="32" y="24.5" font-family="ui-monospace, SFMono-Regular, Menlo, Consolas, 'Liberation Mono', monospace" font-size="14" font-weight="600" fill="#e6edf3">Java</text></g><g transform="translate(329,0)"><rect width="100" height="38" rx="19" fill="#60a5fa" fill-opacity="0.1" stroke="#60a5fa" stroke-opacity="0.5"/><circle cx="19" cy="19" r="4.5" fill="#60a5fa"/><text x="32" y="24.5" font-family="ui-monospace, SFMono-Regular, Menlo, Consolas, 'Liberation Mono', monospace" font-size="14" font-weight="600" fill="#e6edf3">Haskell</text></g><g transform="translate(443,0)"><rect width="128" height="38" rx="19" fill="#60a5fa" fill-opacity="0.1" stroke="#60a5fa" stroke-opacity="0.5"/><circle cx="19" cy="19" r="4.5" fill="#60a5fa"/><text x="32" y="24.5" font-family="ui-monospace, SFMono-Regular, Menlo, Consolas, 'Liberation Mono', monospace" font-size="14" font-weight="600" fill="#e6edf3">JavaScript</text></g><g transform="translate(585,0)"><rect width="73" height="38" rx="19" fill="#60a5fa" fill-opacity="0.1" stroke="#60a5fa" stroke-opacity="0.5"/><circle cx="19" cy="19" r="4.5" fill="#60a5fa"/><text x="32" y="24.5" font-family="ui-monospace, SFMono-Regular, Menlo, Consolas, 'Liberation Mono', monospace" font-size="14" font-weight="600" fill="#e6edf3">HTML</text></g><g transform="translate(672,0)"><rect width="64" height="38" rx="19" fill="#60a5fa" fill-opacity="0.1" stroke="#60a5fa" stroke-opacity="0.5"/><circle cx="19" cy="19" r="4.5" fill="#60a5fa"/><text x="32" y="24.5" font-family="ui-monospace, SFMono-Regular, Menlo, Consolas, 'Liberation Mono', monospace" font-size="14" font-weight="600" fill="#e6edf3">CSS</text></g><g transform="translate(750,0)"><rect width="64" height="38" rx="19" fill="#60a5fa" fill-opacity="0.1" stroke="#60a5fa" stroke-opacity="0.5"/><circle cx="19" cy="19" r="4.5" fill="#60a5fa"/><text x="32" y="24.5" font-family="ui-monospace, SFMono-Regular, Menlo, Consolas, 'Liberation Mono', monospace" font-size="14" font-weight="600" fill="#e6edf3">SQL</text></g><g transform="translate(827,0)"><rect width="73" height="38" rx="19" fill="#34d399" fill-opacity="0.1" stroke="#34d399" stroke-opacity="0.5"/><circle cx="19" cy="19" r="4.5" fill="#34d399"/><text x="32" y="24.5" font-family="ui-monospace, SFMono-Regular, Menlo, Consolas, 'Liberation Mono', monospace" font-size="14" font-weight="600" fill="#e6edf3">Bash</text></g></g></g></g><g transform="translate(0,92)"><g><animateTransform attributeName="transform" type="translate" from="-1629.2 0" to="0 0" dur="46s" repeatCount="indefinite"/><g transform="translate(0,0)"><rect width="82" height="38" rx="19" fill="#34d399" fill-opacity="0.1" stroke="#34d399" stroke-opacity="0.5"/><circle cx="19" cy="19" r="4.5" fill="#34d399"/><text x="32" y="24.5" font-family="ui-monospace, SFMono-Regular, Menlo, Consolas, 'Liberation Mono', monospace" font-size="14" font-weight="600" fill="#e6edf3">Linux</text></g><g transform="translate(96,0)"><rect width="64" height="38" rx="19" fill="#34d399" fill-opacity="0.1" stroke="#34d399" stroke-opacity="0.5"/><circle cx="19" cy="19" r="4.5" fill="#34d399"/><text x="32" y="24.5" font-family="ui-monospace, SFMono-Regular, Menlo, Consolas, 'Liberation Mono', monospace" font-size="14" font-weight="600" fill="#e6edf3">Git</text></g><g transform="translate(174,0)"><rect width="82" height="38" rx="19" fill="#60a5fa" fill-opacity="0.1" stroke="#60a5fa" stroke-opacity="0.5"/><circle cx="19" cy="19" r="4.5" fill="#60a5fa"/><text x="32" y="24.5" font-family="ui-monospace, SFMono-Regular, Menlo, Consolas, 'Liberation Mono', monospace" font-size="14" font-weight="600" fill="#e6edf3">Flask</text></g><g transform="translate(270,0)"><rect width="73" height="38" rx="19" fill="#f472b6" fill-opacity="0.1" stroke="#f472b6" stroke-opacity="0.5"/><circle cx="19" cy="19" r="4.5" fill="#f472b6"/><text x="32" y="24.5" font-family="ui-monospace, SFMono-Regular, Menlo, Consolas, 'Liberation Mono', monospace" font-size="14" font-weight="600" fill="#e6edf3">Vosk</text></g><g transform="translate(356,0)"><rect width="82" height="38" rx="19" fill="#fbbf24" fill-opacity="0.1" stroke="#fbbf24" stroke-opacity="0.5"/><circle cx="19" cy="19" r="4.5" fill="#fbbf24"/><text x="32" y="24.5" font-family="ui-monospace, SFMono-Regular, Menlo, Consolas, 'Liberation Mono', monospace" font-size="14" font-weight="600" fill="#e6edf3">ESP32</text></g><g transform="translate(452,0)"><rect width="64" height="38" rx="19" fill="#fbbf24" fill-opacity="0.1" stroke="#fbbf24" stroke-opacity="0.5"/><circle cx="19" cy="19" r="4.5" fill="#fbbf24"/><text x="32" y="24.5" font-family="ui-monospace, SFMono-Regular, Menlo, Consolas, 'Liberation Mono', monospace" font-size="14" font-weight="600" fill="#e6edf3">BLE</text></g><g transform="translate(530,0)"><rect width="137" height="38" rx="19" fill="#fbbf24" fill-opacity="0.1" stroke="#fbbf24" stroke-opacity="0.5"/><circle cx="19" cy="19" r="4.5" fill="#fbbf24"/><text x="32" y="24.5" font-family="ui-monospace, SFMono-Regular, Menlo, Consolas, 'Liberation Mono', monospace" font-size="14" font-weight="600" fill="#e6edf3">Arduino IDE</text></g><g transform="translate(681,0)"><rect width="64" height="38" rx="19" fill="#f472b6" fill-opacity="0.1" stroke="#f472b6" stroke-opacity="0.5"/><circle cx="19" cy="19" r="4.5" fill="#f472b6"/><text x="32" y="24.5" font-family="ui-monospace, SFMono-Regular, Menlo, Consolas, 'Liberation Mono', monospace" font-size="14" font-weight="600" fill="#e6edf3">RAG</text></g><g transform="translate(759,0)"><rect width="156" height="38" rx="19" fill="#f472b6" fill-opacity="0.1" stroke="#f472b6" stroke-opacity="0.5"/><circle cx="19" cy="19" r="4.5" fill="#f472b6"/><text x="32" y="24.5" font-family="ui-monospace, SFMono-Regular, Menlo, Consolas, 'Liberation Mono', monospace" font-size="14" font-weight="600" fill="#e6edf3">Deep Learning</text></g><g transform="translate(928,0)"><rect width="202" height="38" rx="19" fill="#f472b6" fill-opacity="0.1" stroke="#f472b6" stroke-opacity="0.5"/><circle cx="19" cy="19" r="4.5" fill="#f472b6"/><text x="32" y="24.5" font-family="ui-monospace, SFMono-Regular, Menlo, Consolas, 'Liberation Mono', monospace" font-size="14" font-weight="600" fill="#e6edf3">Prompt Engineering</text></g><g transform="translate(1144,0)"><rect width="174" height="38" rx="19" fill="#f472b6" fill-opacity="0.1" stroke="#f472b6" stroke-opacity="0.5"/><circle cx="19" cy="19" r="4.5" fill="#f472b6"/><text x="32" y="24.5" font-family="ui-monospace, SFMono-Regular, Menlo, Consolas, 'Liberation Mono', monospace" font-size="14" font-weight="600" fill="#e6edf3">Structured JSON</text></g><g transform="translate(1332,0)"><rect width="100" height="38" rx="19" fill="#fbbf24" fill-opacity="0.1" stroke="#fbbf24" stroke-opacity="0.5"/><circle cx="19" cy="19" r="4.5" fill="#fbbf24"/><text x="32" y="24.5" font-family="ui-monospace, SFMono-Regular, Menlo, Consolas, 'Liberation Mono', monospace" font-size="14" font-weight="600" fill="#e6edf3">Jupyter</text></g><g transform="translate(1446,0)"><rect width="82" height="38" rx="19" fill="#34d399" fill-opacity="0.1" stroke="#34d399" stroke-opacity="0.5"/><circle cx="19" cy="19" r="4.5" fill="#34d399"/><text x="32" y="24.5" font-family="ui-monospace, SFMono-Regular, Menlo, Consolas, 'Liberation Mono', monospace" font-size="14" font-weight="600" fill="#e6edf3">Conky</text></g><g transform="translate(1542,0)"><rect width="73" height="38" rx="19" fill="#34d399" fill-opacity="0.1" stroke="#34d399" stroke-opacity="0.5"/><circle cx="19" cy="19" r="4.5" fill="#34d399"/><text x="32" y="24.5" font-family="ui-monospace, SFMono-Regular, Menlo, Consolas, 'Liberation Mono', monospace" font-size="14" font-weight="600" fill="#e6edf3">Kali</text></g><g transform="translate(1629,0)"><g transform="translate(0,0)"><rect width="82" height="38" rx="19" fill="#34d399" fill-opacity="0.1" stroke="#34d399" stroke-opacity="0.5"/><circle cx="19" cy="19" r="4.5" fill="#34d399"/><text x="32" y="24.5" font-family="ui-monospace, SFMono-Regular, Menlo, Consolas, 'Liberation Mono', monospace" font-size="14" font-weight="600" fill="#e6edf3">Linux</text></g><g transform="translate(96,0)"><rect width="64" height="38" rx="19" fill="#34d399" fill-opacity="0.1" stroke="#34d399" stroke-opacity="0.5"/><circle cx="19" cy="19" r="4.5" fill="#34d399"/><text x="32" y="24.5" font-family="ui-monospace, SFMono-Regular, Menlo, Consolas, 'Liberation Mono', monospace" font-size="14" font-weight="600" fill="#e6edf3">Git</text></g><g transform="translate(174,0)"><rect width="82" height="38" rx="19" fill="#60a5fa" fill-opacity="0.1" stroke="#60a5fa" stroke-opacity="0.5"/><circle cx="19" cy="19" r="4.5" fill="#60a5fa"/><text x="32" y="24.5" font-family="ui-monospace, SFMono-Regular, Menlo, Consolas, 'Liberation Mono', monospace" font-size="14" font-weight="600" fill="#e6edf3">Flask</text></g><g transform="translate(270,0)"><rect width="73" height="38" rx="19" fill="#f472b6" fill-opacity="0.1" stroke="#f472b6" stroke-opacity="0.5"/><circle cx="19" cy="19" r="4.5" fill="#f472b6"/><text x="32" y="24.5" font-family="ui-monospace, SFMono-Regular, Menlo, Consolas, 'Liberation Mono', monospace" font-size="14" font-weight="600" fill="#e6edf3">Vosk</text></g><g transform="translate(356,0)"><rect width="82" height="38" rx="19" fill="#fbbf24" fill-opacity="0.1" stroke="#fbbf24" stroke-opacity="0.5"/><circle cx="19" cy="19" r="4.5" fill="#fbbf24"/><text x="32" y="24.5" font-family="ui-monospace, SFMono-Regular, Menlo, Consolas, 'Liberation Mono', monospace" font-size="14" font-weight="600" fill="#e6edf3">ESP32</text></g><g transform="translate(452,0)"><rect width="64" height="38" rx="19" fill="#fbbf24" fill-opacity="0.1" stroke="#fbbf24" stroke-opacity="0.5"/><circle cx="19" cy="19" r="4.5" fill="#fbbf24"/><text x="32" y="24.5" font-family="ui-monospace, SFMono-Regular, Menlo, Consolas, 'Liberation Mono', monospace" font-size="14" font-weight="600" fill="#e6edf3">BLE</text></g><g transform="translate(530,0)"><rect width="137" height="38" rx="19" fill="#fbbf24" fill-opacity="0.1" stroke="#fbbf24" stroke-opacity="0.5"/><circle cx="19" cy="19" r="4.5" fill="#fbbf24"/><text x="32" y="24.5" font-family="ui-monospace, SFMono-Regular, Menlo, Consolas, 'Liberation Mono', monospace" font-size="14" font-weight="600" fill="#e6edf3">Arduino IDE</text></g><g transform="translate(681,0)"><rect width="64" height="38" rx="19" fill="#f472b6" fill-opacity="0.1" stroke="#f472b6" stroke-opacity="0.5"/><circle cx="19" cy="19" r="4.5" fill="#f472b6"/><text x="32" y="24.5" font-family="ui-monospace, SFMono-Regular, Menlo, Consolas, 'Liberation Mono', monospace" font-size="14" font-weight="600" fill="#e6edf3">RAG</text></g><g transform="translate(759,0)"><rect width="156" height="38" rx="19" fill="#f472b6" fill-opacity="0.1" stroke="#f472b6" stroke-opacity="0.5"/><circle cx="19" cy="19" r="4.5" fill="#f472b6"/><text x="32" y="24.5" font-family="ui-monospace, SFMono-Regular, Menlo, Consolas, 'Liberation Mono', monospace" font-size="14" font-weight="600" fill="#e6edf3">Deep Learning</text></g><g transform="translate(928,0)"><rect width="202" height="38" rx="19" fill="#f472b6" fill-opacity="0.1" stroke="#f472b6" stroke-opacity="0.5"/><circle cx="19" cy="19" r="4.5" fill="#f472b6"/><text x="32" y="24.5" font-family="ui-monospace, SFMono-Regular, Menlo, Consolas, 'Liberation Mono', monospace" font-size="14" font-weight="600" fill="#e6edf3">Prompt Engineering</text></g><g transform="translate(1144,0)"><rect width="174" height="38" rx="19" fill="#f472b6" fill-opacity="0.1" stroke="#f472b6" stroke-opacity="0.5"/><circle cx="19" cy="19" r="4.5" fill="#f472b6"/><text x="32" y="24.5" font-family="ui-monospace, SFMono-Regular, Menlo, Consolas, 'Liberation Mono', monospace" font-size="14" font-weight="600" fill="#e6edf3">Structured JSON</text></g><g transform="translate(1332,0)"><rect width="100" height="38" rx="19" fill="#fbbf24" fill-opacity="0.1" stroke="#fbbf24" stroke-opacity="0.5"/><circle cx="19" cy="19" r="4.5" fill="#fbbf24"/><text x="32" y="24.5" font-family="ui-monospace, SFMono-Regular, Menlo, Consolas, 'Liberation Mono', monospace" font-size="14" font-weight="600" fill="#e6edf3">Jupyter</text></g><g transform="translate(1446,0)"><rect width="82" height="38" rx="19" fill="#34d399" fill-opacity="0.1" stroke="#34d399" stroke-opacity="0.5"/><circle cx="19" cy="19" r="4.5" fill="#34d399"/><text x="32" y="24.5" font-family="ui-monospace, SFMono-Regular, Menlo, Consolas, 'Liberation Mono', monospace" font-size="14" font-weight="600" fill="#e6edf3">Conky</text></g><g transform="translate(1542,0)"><rect width="73" height="38" rx="19" fill="#34d399" fill-opacity="0.1" stroke="#34d399" stroke-opacity="0.5"/><circle cx="19" cy="19" r="4.5" fill="#34d399"/><text x="32" y="24.5" font-family="ui-monospace, SFMono-Regular, Menlo, Consolas, 'Liberation Mono', monospace" font-size="14" font-weight="600" fill="#e6edf3">Kali</text></g></g><g transform="translate(3258,0)"><g transform="translate(0,0)"><rect width="82" height="38" rx="19" fill="#34d399" fill-opacity="0.1" stroke="#34d399" stroke-opacity="0.5"/><circle cx="19" cy="19" r="4.5" fill="#34d399"/><text x="32" y="24.5" font-family="ui-monospace, SFMono-Regular, Menlo, Consolas, 'Liberation Mono', monospace" font-size="14" font-weight="600" fill="#e6edf3">Linux</text></g><g transform="translate(96,0)"><rect width="64" height="38" rx="19" fill="#34d399" fill-opacity="0.1" stroke="#34d399" stroke-opacity="0.5"/><circle cx="19" cy="19" r="4.5" fill="#34d399"/><text x="32" y="24.5" font-family="ui-monospace, SFMono-Regular, Menlo, Consolas, 'Liberation Mono', monospace" font-size="14" font-weight="600" fill="#e6edf3">Git</text></g><g transform="translate(174,0)"><rect width="82" height="38" rx="19" fill="#60a5fa" fill-opacity="0.1" stroke="#60a5fa" stroke-opacity="0.5"/><circle cx="19" cy="19" r="4.5" fill="#60a5fa"/><text x="32" y="24.5" font-family="ui-monospace, SFMono-Regular, Menlo, Consolas, 'Liberation Mono', monospace" font-size="14" font-weight="600" fill="#e6edf3">Flask</text></g><g transform="translate(270,0)"><rect width="73" height="38" rx="19" fill="#f472b6" fill-opacity="0.1" stroke="#f472b6" stroke-opacity="0.5"/><circle cx="19" cy="19" r="4.5" fill="#f472b6"/><text x="32" y="24.5" font-family="ui-monospace, SFMono-Regular, Menlo, Consolas, 'Liberation Mono', monospace" font-size="14" font-weight="600" fill="#e6edf3">Vosk</text></g><g transform="translate(356,0)"><rect width="82" height="38" rx="19" fill="#fbbf24" fill-opacity="0.1" stroke="#fbbf24" stroke-opacity="0.5"/><circle cx="19" cy="19" r="4.5" fill="#fbbf24"/><text x="32" y="24.5" font-family="ui-monospace, SFMono-Regular, Menlo, Consolas, 'Liberation Mono', monospace" font-size="14" font-weight="600" fill="#e6edf3">ESP32</text></g><g transform="translate(452,0)"><rect width="64" height="38" rx="19" fill="#fbbf24" fill-opacity="0.1" stroke="#fbbf24" stroke-opacity="0.5"/><circle cx="19" cy="19" r="4.5" fill="#fbbf24"/><text x="32" y="24.5" font-family="ui-monospace, SFMono-Regular, Menlo, Consolas, 'Liberation Mono', monospace" font-size="14" font-weight="600" fill="#e6edf3">BLE</text></g><g transform="translate(530,0)"><rect width="137" height="38" rx="19" fill="#fbbf24" fill-opacity="0.1" stroke="#fbbf24" stroke-opacity="0.5"/><circle cx="19" cy="19" r="4.5" fill="#fbbf24"/><text x="32" y="24.5" font-family="ui-monospace, SFMono-Regular, Menlo, Consolas, 'Liberation Mono', monospace" font-size="14" font-weight="600" fill="#e6edf3">Arduino IDE</text></g><g transform="translate(681,0)"><rect width="64" height="38" rx="19" fill="#f472b6" fill-opacity="0.1" stroke="#f472b6" stroke-opacity="0.5"/><circle cx="19" cy="19" r="4.5" fill="#f472b6"/><text x="32" y="24.5" font-family="ui-monospace, SFMono-Regular, Menlo, Consolas, 'Liberation Mono', monospace" font-size="14" font-weight="600" fill="#e6edf3">RAG</text></g><g transform="translate(759,0)"><rect width="156" height="38" rx="19" fill="#f472b6" fill-opacity="0.1" stroke="#f472b6" stroke-opacity="0.5"/><circle cx="19" cy="19" r="4.5" fill="#f472b6"/><text x="32" y="24.5" font-family="ui-monospace, SFMono-Regular, Menlo, Consolas, 'Liberation Mono', monospace" font-size="14" font-weight="600" fill="#e6edf3">Deep Learning</text></g><g transform="translate(928,0)"><rect width="202" height="38" rx="19" fill="#f472b6" fill-opacity="0.1" stroke="#f472b6" stroke-opacity="0.5"/><circle cx="19" cy="19" r="4.5" fill="#f472b6"/><text x="32" y="24.5" font-family="ui-monospace, SFMono-Regular, Menlo, Consolas, 'Liberation Mono', monospace" font-size="14" font-weight="600" fill="#e6edf3">Prompt Engineering</text></g><g transform="translate(1144,0)"><rect width="174" height="38" rx="19" fill="#f472b6" fill-opacity="0.1" stroke="#f472b6" stroke-opacity="0.5"/><circle cx="19" cy="19" r="4.5" fill="#f472b6"/><text x="32" y="24.5" font-family="ui-monospace, SFMono-Regular, Menlo, Consolas, 'Liberation Mono', monospace" font-size="14" font-weight="600" fill="#e6edf3">Structured JSON</text></g><g transform="translate(1332,0)"><rect width="100" height="38" rx="19" fill="#fbbf24" fill-opacity="0.1" stroke="#fbbf24" stroke-opacity="0.5"/><circle cx="19" cy="19" r="4.5" fill="#fbbf24"/><text x="32" y="24.5" font-family="ui-monospace, SFMono-Regular, Menlo, Consolas, 'Liberation Mono', monospace" font-size="14" font-weight="600" fill="#e6edf3">Jupyter</text></g><g transform="translate(1446,0)"><rect width="82" height="38" rx="19" fill="#34d399" fill-opacity="0.1" stroke="#34d399" stroke-opacity="0.5"/><circle cx="19" cy="19" r="4.5" fill="#34d399"/><text x="32" y="24.5" font-family="ui-monospace, SFMono-Regular, Menlo, Consolas, 'Liberation Mono', monospace" font-size="14" font-weight="600" fill="#e6edf3">Conky</text></g><g transform="translate(1542,0)"><rect width="73" height="38" rx="19" fill="#34d399" fill-opacity="0.1" stroke="#34d399" stroke-opacity="0.5"/><circle cx="19" cy="19" r="4.5" fill="#34d399"/><text x="32" y="24.5" font-family="ui-monospace, SFMono-Regular, Menlo, Consolas, 'Liberation Mono', monospace" font-size="14" font-weight="600" fill="#e6edf3">Kali</text></g></g></g></g></g>
</g>
<rect x="0.5" y="0.5" width="999" height="169" rx="22" fill="none" stroke="#ffffff" stroke-opacity="0.1"/>
</svg>